<svg xmlns="http://www.w3.org/2000/svg" viewBox="148 -5 135 110">
  <path fill="#00aeef" d="M179.88,52.8h0c13.58,6.06,18.55,5.95,23.72,6.38.08.02.85.11,2.13.25-3.12-2.52-5.12-6.36-5.12-10.68,0-7.5,6-13.58,13.45-13.74,7.45.17,13.45,6.24,13.45,13.74,0,4.32-2,8.16-5.12,10.68,1.28-.13,2.04-.23,2.13-.25h0c5.17-.43,14.4-1.46,23.72-6.38,20.69-10.91,28.44-34.52,28.44-34.52,2.32-6.81-.77-14.53-7.42-17.26-7.23-2.96-15.34.8-17.83,8.08,0,0-4.35,12.66-7.87,22.89-1.44,4.19-7.37,4.17-8.8-.01l-7.81-22.88s0,0,0-.01c-.14-.42-.31-.83-.49-1.23,0-.02-.01-.03-.02-.05-.18-.38-.37-.76-.58-1.12-.01-.03-.03-.05-.04-.08-.21-.36-.44-.7-.68-1.04-.02-.02-.03-.04-.04-.06-.25-.35-.53-.68-.81-1.01,0,0,0,0,0,0-.84-.94-1.82-1.76-2.92-2.45-.02-.02-.05-.03-.07-.05-.3-.18-.6-.35-.92-.51-.09-.05-.17-.09-.26-.14-.26-.12-.52-.23-.79-.34-.16-.06-.31-.13-.47-.19-.08-.03-.15-.07-.24-.09-.16-.05-.31-.09-.47-.13-.2-.06-.39-.12-.59-.17-.23-.06-.45-.11-.68-.15-.21-.04-.41-.08-.62-.11-.23-.03-.45-.06-.68-.08-.21-.02-.43-.04-.64-.05-.22-.01-.44-.01-.66-.01-.22,0-.44,0-.66.01-.22.01-.43.03-.64.05-.23.02-.45.05-.68.08-.21.03-.42.07-.62.11-.23.05-.45.09-.68.15-.2.05-.4.11-.59.17-.16.05-.31.08-.47.13-.08.03-.16.06-.24.09-.16.06-.32.12-.47.19-.27.11-.53.22-.79.34-.09.04-.18.09-.26.14-.31.16-.62.32-.92.51-.03.02-.05.03-.07.05-1.1.68-2.08,1.51-2.92,2.45,0,0,0,0,0,0-.29.32-.56.66-.81,1.01-.02.02-.03.04-.04.06-.24.34-.47.68-.68,1.04-.02.03-.03.05-.04.08-.21.36-.41.74-.58,1.12,0,.02-.01.03-.02.05-.18.4-.35.81-.49,1.23,0,0,0,0,0,.01l-7.56,22.84c-1.39,4.2-7.31,4.27-8.79.1-3.58-10.06-7.95-22.44-7.95-22.44-2.32-6.81-9.5-11.02-16.43-9.11-7.53,2.08-11.65,10.02-9.17,17.3,0,0,4.23,19,28.27,35.02Z"/>
  <path fill="#00aeef" d="M255.44,58.08c-16.72,8.64-28.56,23.5-28.18,31.3.17,3.45,1.51,5.9,3.49,7.57,0,0,0,.02,0,.03.42.34.85.67,1.32.96.02.02.05.03.07.05.3.18.6.35.92.51.09.05.17.09.26.14.26.12.52.23.79.34.16.06.31.13.47.19.08.03.15.07.24.09.16.05.31.09.47.13.2.06.39.12.59.17.23.06.45.11.68.15.21.04.41.08.62.11.23.03.45.06.68.08.21.02.43.04.64.05.22.01.44.01.66.01.22,0,.44,0,.66-.01.22-.01.43-.03.64-.05.23-.02.45-.05.68-.08.21-.03.42-.07.62-.11.23-.05.45-.09.68-.15.2-.05.4-.11.59-.17.16-.05.31-.08.47-.13.08-.03.16-.06.24-.09.16-.06.32-.12.47-.19.27-.11.53-.22.79-.34.09-.04.18-.09.26-.14.31-.16.62-.32.92-.51.03-.02.05-.03.07-.05,1.1-.68,2.08-1.51,2.92-2.45,0,0,0,0,0,0,.29-.32.56-.66.81-1.01.02-.02.03-.04.04-.06.24-.34.47-.68.68-1.04.02-.03.03-.05.04-.08.21-.36.41-.74.58-1.12,0-.02.01-.03.02-.05.18-.4.35-.81.49-1.23,0,0,0,0,0-.01l10.47-30.65c.82-2.39-1.6-4.65-3.91-3.61-.96.43-1.96.93-2.99,1.46Z"/>
  <path fill="#00aeef" d="M199.3,95.48c.2-.22.38-.46.56-.69.91-1.45,1.51-3.22,1.62-5.41.37-7.8-11.47-22.66-28.18-31.3-.26-.14-.52-.27-.78-.4-3.21-1.62-6.78,1.47-5.61,4.87l9.67,28.33s0,0,0,.01c.14.42.31.83.49,1.23,0,.02.01.03.02.05.18.38.37.76.58,1.12.01.03.03.05.04.08.21.36.44.7.68,1.04.02.02.03.04.04.06.25.35.53.68.81,1.01,0,0,0,0,0,0,.84.94,1.82,1.76,2.92,2.45.02.02.05.03.07.05.3.18.6.35.92.51.09.05.17.09.26.14.26.12.52.23.79.34.16.06.31.13.47.19.08.03.15.07.24.09.16.05.31.09.47.13.2.06.39.12.59.17.23.06.45.11.68.15.21.04.41.08.62.11.23.03.45.06.68.08.21.02.43.04.64.05.22.01.44.01.66.01.22,0,.44,0,.66-.01.22-.01.43-.03.64-.05.23-.02.45-.05.68-.08.21-.03.42-.07.62-.11.23-.05.45-.09.68-.15.2-.05.4-.11.59-.17.16-.05.31-.08.47-.13.08-.03.16-.06.24-.09.16-.06.32-.12.47-.19.27-.11.53-.22.79-.34.09-.04.18-.09.26-.14.31-.16.62-.32.92-.51.03-.02.05-.03.07-.05,1.1-.68,2.08-1.51,2.92-2.45,0,0,0,0,0,0Z"/>
</svg>